Coordinates
version=1
nRows=24
nColumns=26
inDegrees=yes

Units are S.I. units (second, meters, Newtons, ...)
Angles are in degrees.

endheader
time	pelvis_tilt	pelvis_list	pelvis_rotation	pelvis_tx	pelvis_ty	pelvis_tz	hip_flexion_r	hip_adduction_r	hip_rotation_r	knee_angle_r	knee_angle_r_beta	ankle_angle_r	subtalar_angle_r	mtp_angle_r	hip_flexion_l	hip_adduction_l	hip_rotation_l	knee_angle_l	knee_angle_l_beta	ankle_angle_l	subtalar_angle_l	mtp_angle_l	lumbar_extension	lumbar_bending	lumbar_rotation
    186.72870750	    -13.73574898	      4.29563047	      8.81800866	      0.24702207	      0.83322984	      0.10444014	     41.50681079	    -10.91984739	      0.09474933	    117.26056715	    117.26056715	    -13.20035273	    -14.93172243	      0.00000000	     28.87782875	     13.30500062	      9.67135129	     47.06848607	     47.06848607	     26.12625296	     -4.46326764	      0.00000000	     -6.53752087	     -8.26712803	     -2.20082792
    186.73870750	    -14.20568624	      3.36415646	      9.31319500	      0.24589349	      0.83659307	      0.10380285	     45.26608296	    -10.41317915	     -0.43596639	    115.66822797	    115.66822797	    -12.00524481	    -15.02857894	      0.00000000	     25.91413853	     12.27863260	     11.13159308	     45.16268392	     45.16268392	     26.42935275	     -3.99550772	      0.00000000	     -5.84212872	     -7.01859592	     -3.98951137
    186.74870750	    -14.82799982	      2.19402783	      9.84258089	      0.24530307	      0.84122069	      0.10306061	     48.72874017	     -9.77109096	     -1.33752195	    113.14041765	    113.14041765	    -10.68310887	    -15.14965503	      0.00000000	     22.84587680	     10.90860182	     12.69933116	     42.49555221	     42.49555221	     26.02079685	     -3.63480480	      0.00000000	     -4.81422402	     -5.51287376	     -5.73561602
    186.75870750	    -15.21653917	      0.87170212	     10.40703431	      0.24547087	      0.84761716	      0.10208849	     51.32960423	     -9.07977778	     -2.61187588	    109.64747981	    109.64747981	     -9.57204722	    -15.57856648	      0.00000000	     19.40265403	      9.22956853	     14.27613022	     39.23405932	     39.23405932	     24.05950010	     -3.73428820	      0.00000000	     -3.93564744	     -3.73858949	     -7.67067587
    186.76870750	    -15.63305688	     -0.36256001	     10.74272979	      0.24630550	      0.85508451	      0.10135496	     53.42919231	     -8.26072580	     -3.77508443	    105.35737226	    105.35737226	     -8.94321758	    -16.44932818	      0.00000000	     15.95096137	      7.43427182	     15.44092404	     35.52562088	     35.52562088	     20.72448208	     -4.26499839	      0.00000000	     -2.94626688	     -2.08795245	     -9.21919532
    186.77870750	    -15.98230433	     -1.53615373	     10.93713682	      0.24786383	      0.86340057	      0.10072987	     54.89696966	     -7.38256253	     -4.93904276	    100.33339966	    100.33339966	     -8.46849802	    -17.60146886	      0.00000000	     12.46794331	      5.51463966	     16.05188182	     31.48321502	     31.48321502	     16.33084060	     -4.78038290	      0.00000000	     -1.95147154	     -0.49749359	    -10.61428567
    186.78870750	    -16.32366956	     -2.80402470	     10.92572635	      0.25012544	      0.87199197	      0.10035697	     55.84713428	     -6.27345178	     -6.10933221	     94.63776986	     94.63776986	     -7.85443071	    -18.52759969	      0.00000000	      9.18098515	      3.34280720	     15.89655415	     27.44318216	     27.44318216	     11.38251458	     -4.74349599	      0.00000000	     -0.83242390	      1.20081319	    -11.79159631
    186.79870750	    -16.88667849	     -4.20253276	     10.60344160	      0.25276870	      0.88026948	      0.10043854	     56.59253633	     -4.75723120	     -7.09333595	     88.34243949	     88.34243949	     -7.10333469	    -19.01620462	      0.00000000	      6.38238497	      0.97812484	     14.79010237	     23.54538292	     23.54538292	      6.00237954	     -4.08353830	      0.00000000	      0.63125022	      2.99221780	    -12.59297913
    186.80870750	    -16.79125578	     -5.51849691	     10.27772595	      0.25638479	      0.88900317	      0.10040630	     56.07656974	     -3.18344711	     -8.10108482	     81.47796551	     81.47796551	     -6.45636789	    -19.51174503	      0.00000000	      2.81033885	     -1.42573827	     13.15380622	     19.29059063	     19.29059063	     -0.37863492	     -3.28513551	      0.00000000	      1.39204863	      4.79591166	    -13.54880788
    186.81870750	    -17.03673917	     -6.54423544	      9.85750388	      0.25994628	      0.89674213	      0.10045934	     55.56664381	     -1.78096917	     -8.68933659	     74.24224173	     74.24224173	     -5.50233688	    -19.11840148	      0.00000000	     -0.25282132	     -3.33714049	     11.11389791	     15.21294462	     15.21294462	     -7.17481510	     -2.27725640	      0.00000000	      2.47655252	      6.15101718	    -14.27451796
    186.82870750	    -17.09331317	     -6.97651435	      9.57648114	      0.26342990	      0.90418688	      0.10015002	     54.50151296	     -0.82357968	     -8.69957357	     66.75478899	     66.75478899	     -4.49752089	    -18.05617322	      0.00000000	     -3.47487080	     -4.42958290	      9.82913499	     11.30576870	     11.30576870	    -13.74311720	     -1.32297494	      0.00000000	      3.17359105	      6.81751259	    -15.19393874
    186.83870750	    -17.55101188	     -7.19576141	      9.40412846	      0.26636325	      0.91032849	      0.09989763	     53.60210325	     -0.06771326	     -8.29296011	     58.97619514	     58.97619514	     -3.57802302	    -16.44634871	      0.00000000	     -5.51808762	     -5.04761931	      8.74161847	      8.94458006	      8.94458006	    -19.60834761	     -1.08196459	      0.00000000	      4.26242296	      7.09595844	    -15.91994612
    186.84870750	    -18.37331091	     -7.15563822	      9.60465855	      0.26836186	      0.91497706	      0.09959222	     52.86513251	      0.19810048	     -7.68108592	     51.02553437	     51.02553437	     -3.06516259	    -14.60188181	      0.00000000	     -6.10820643	     -5.18585408	      8.30250997	      8.88715094	      8.88715094	    -23.94185250	     -1.34751573	      0.00000000	      5.65392569	      6.87541903	    -16.84889916
    186.85870750	    -19.25599650	     -6.78062989	     10.13173172	      0.26954263	      0.91839500	      0.09913564	     52.00538330	     -0.08356925	     -7.02811663	     43.08495281	     43.08495281	     -2.85381870	    -12.73351918	      0.00000000	     -5.88130889	     -4.81136268	      9.18886960	     10.76312908	     10.76312908	    -26.28789186	     -1.72340319	      0.00000000	      6.92851771	      6.15002547	    -17.86536768
    186.86870750	    -19.96101099	     -6.12475474	     10.99750700	      0.27028606	      0.92087486	      0.09811786	     50.78987746	     -0.88692769	     -6.56188558	     35.29691835	     35.29691835	     -2.70190096	    -10.90107854	      0.00000000	     -5.47308491	     -3.93947936	     11.69655191	     13.95102196	     13.95102196	    -26.05498781	     -2.16927137	      0.00000000	      7.89007735	      5.10440727	    -18.91204681
    186.87870750	    -20.11959469	     -5.16249034	     11.83469153	      0.27136031	      0.92276433	      0.09692186	     49.00849214	     -1.89778111	     -6.34282305	     28.09816018	     28.09816018	     -2.18439684	     -8.70061133	      0.00000000	     -5.47762849	     -2.67004605	     14.17422511	     17.97482374	     17.97482374	    -24.59198254	     -2.48499759	      0.00000000	      8.12729592	      3.84230956	    -19.62227982
    186.88870750	    -19.68638834	     -4.21241119	     12.45519650	      0.27295783	      0.92402922	      0.09597544	     46.76659269	     -2.66570996	     -6.49122174	     21.77242361	     21.77242361	     -1.08802179	     -6.10853038	      0.00000000	     -5.90708278	     -1.51605019	     15.52057668	     22.56156164	     22.56156164	    -22.92971493	     -2.23235183	      0.00000000	      7.66911628	      2.79838869	    -19.98268150
    186.89870750	    -18.87748997	     -3.51020037	     12.67813288	      0.27469746	      0.92446431	      0.09571959	     44.35300638	     -2.87835385	     -6.87165910	     16.37103089	     16.37103089	      0.61982857	     -2.93289353	      0.00000000	     -6.38101981	     -0.77872508	     15.42145425	     27.76797784	     27.76797784	    -21.33408866	     -1.47221190	      0.00000000	      6.77015677	      2.21329937	    -19.86870196
    186.90870750	    -18.11897051	     -3.11445405	     12.55662737	      0.27611198	      0.92374300	      0.09603070	     42.35556882	     -2.68887079	     -7.48394117	     12.16504257	     12.16504257	      2.17157137	      0.76884401	      0.00000000	     -6.46852620	     -0.34577667	     14.67467276	     33.45123730	     33.45123730	    -20.12593437	     -1.26034150	      0.00000000	      5.94240449	      2.02737012	    -19.33034957
    186.91870750	    -17.41482780	     -2.92874518	     12.10044188	      0.27706696	      0.92202635	      0.09668152	     40.79421563	     -2.22055615	     -8.28031264	      9.18423105	      9.18423105	      2.91929057	      4.92594248	      0.00000000	     -6.26953640	     -0.07447826	     13.69268537	     39.41218371	     39.41218371	    -18.99023537	     -1.32728716	      0.00000000	      5.13272762	      2.15483554	    -18.50966242
    186.92870750	    -17.02737535	     -2.92107381	     11.21503208	      0.27757518	      0.91899496	      0.09787074	     39.64206277	     -1.31254462	     -8.25971853	      6.82343706	      6.82343706	      2.85434096	      7.71092997	      0.00000000	     -5.51455170	      0.12418832	     12.35344235	     45.60197060	     45.60197060	    -18.20016910	     -2.17785872	      0.00000000	      4.67147701	      2.47738949	    -17.16426218
    186.93870750	    -16.53861682	     -3.07254076	     10.21386695	      0.27790488	      0.91506299	      0.09912563	     38.53844077	     -0.18433998	     -8.40027558	      5.42872916	      5.42872916	      3.17194432	      9.71409016	      0.00000000	     -4.71669024	      0.10130968	     10.87535872	     51.88409976	     51.88409976	    -17.30299888	     -3.30246979	      0.00000000	      4.07437999	      3.03316304	    -15.72467518
    186.94870750	    -15.87090101	     -3.14029933	      9.19011647	      0.27813688	      0.91046187	      0.09995501	     37.56984323	      0.82435537	     -8.76322460	      5.47084369	      5.47084369	      3.77252895	     10.25029019	      0.00000000	     -4.07825920	      0.14872212	      9.45513214	     58.06096824	     58.06096824	    -16.34247600	     -4.56006604	      0.00000000	      3.21402659	      3.57734370	    -14.28436390
    186.95870750	    -15.10810677	     -3.10508053	      8.19822459	      0.27812773	      0.90516640	      0.10037968	     36.74718045	      1.60878398	     -9.02352924	      6.77424200	      6.77424200	      4.30897452	      9.60929486	      0.00000000	     -3.46252061	      0.26301479	      8.06786880	     64.11894222	     64.11894222	    -15.46288592	     -5.93931864	      0.00000000	      2.19659654	      4.06462510	    -12.82357437
